# xmcd
#
# Track frame offsets: 
#        150
#        15290
#        29323
#        42725
#        60783
#        76586
#        91642
#        105300
#        118285
#        130107
#
# Disc length: 1987 seconds
#
# Revision: 0
# Processed by: cddbd v1.5.2PL0 Copyright (c) Steve Scherf et al.
# Submitted via: ExactAudioCopyFreeDBPlugin 1.0
#
DISCID=6607c10a
DTITLE=Jes Holtsø - Big easy
DYEAR=2012
DGENRE=Blues
TTITLE0=Who is laughing now
TTITLE1=Big easy
TTITLE2=Business of the blues
TTITLE3=Hell to pay
TTITLE4=Everyday life
TTITLE5=Accidently on purpose
TTITLE6=I sing them to you
TTITLE7=All that I ever need
TTITLE8=Let's rock it
TTITLE9=Roll me gently
EXTD=
EXTT0=
EXTT1=
EXTT2=
EXTT3=
EXTT4=
EXTT5=
EXTT6=
EXTT7=
EXTT8=
EXTT9=
PLAYORDER=
